STARTFONT 2.1
COMMENT
COMMENT Converted from OpenType font "Font 90 Icons.ttf" by "otf2bdf 3.0".
COMMENT
FONT -FreeType-Font 90 Icons-Medium-R-Normal--29-210-100-100-P-109-ISO10646-1
SIZE 21 100 100
FONTBOUNDINGBOX 31 30 0 -6
STARTPROPERTIES 19
FOUNDRY "FreeType"
FAMILY_NAME "Font 90 Icons"
WEIGHT_NAME "Medium"
SLANT "R"
SETWIDTH_NAME "Normal"
ADD_STYLE_NAME ""
PIXEL_SIZE 29
POINT_SIZE 210
RESOLUTION_X 100
RESOLUTION_Y 100
SPACING "P"
AVERAGE_WIDTH 109
CHARSET_REGISTRY "ISO10646"
CHARSET_ENCODING "1"
FONT_ASCENT 24
FONT_DESCENT 5
COPYRIGHT "Typeface © (el-harrak.blogspot.com). <darrati10@gmail.com>. All Rights Reserved"
_OTF_FONTFILE "Font 90 Icons.ttf"
_OTF_PSNAME "Font 90 Icons"
ENDPROPERTIES
CHARS 242
STARTCHAR 0000
ENCODING 0
SWIDTH 0 0
DWIDTH 0 0
BBX 0 0 0 0
BITMAP
ENDCHAR
STARTCHAR 001D
ENCODING 29
SWIDTH 0 0
DWIDTH 0 0
BBX 0 0 0 0
BITMAP
ENDCHAR
STARTCHAR 0020
ENCODING 32
SWIDTH 240 0
DWIDTH 7 0
BBX 0 0 0 0
BITMAP
ENDCHAR
STARTCHAR 0021
ENCODING 33
SWIDTH 960 0
DWIDTH 28 0
BBX 28 28 0 -5
BITMAP
003FE000
01FFB800
03FFE400
07FFF300
0FFFF180
1FFDF080
3FF0F840
3FF0F820
7FF8F820
7FFFF020
7FFFF010
FFFFE010
FFFFC010
FFFF0010
FFE00010
FFC00010
FF800010
7F000010
7F020020
7F0F0020
3F0F0040
3F070040
1F000080
0F000100
07800200
01C00C00
00F87000
000F8000
ENDCHAR
STARTCHAR 0022
ENCODING 34
SWIDTH 960 0
DWIDTH 28 0
BBX 28 22 0 -2
BITMAP
003FE000
00206000
00202000
3FFFFFC0
7FFFFFF0
FFFFFFF0
FFFFFFF0
FFFFFFF0
FFFFFFF0
FFFFFFF0
FFFFFFF0
FFFFFFF0
FFFFFFF0
FFFFFFF0
FFFFFFF0
FFFFFFF0
FFFFFFF0
FFFFFFF0
FFFFFFF0
FFFFFFF0
7FFFFFF0
7FFFFFE0
ENDCHAR
STARTCHAR 0023
ENCODING 35
SWIDTH 960 0
DWIDTH 28 0
BBX 26 30 1 -6
BITMAP
01F80000
E7FF0000
EFFFE100
EFFFFF00
7FFFFF80
77FFFF80
77FFFF80
77FFFF80
77FFFF80
77FFFF80
3BFFFF80
3BFFFFC0
3BFFFFC0
3BFFFFC0
3B803FC0
3B000FC0
1C0001C0
1C000000
1C000000
1C000000
1C000000
0E000000
0E000000
0E000000
0E000000
0E000000
0E000000
07000000
07000000
02000000
ENDCHAR
STARTCHAR 0024
ENCODING 36
SWIDTH 960 0
DWIDTH 28 0
BBX 28 28 0 -5
BITMAP
1E000000
3F000000
7F800000
FFC00000
FFE00000
FFF00000
7FF80000
3FFE0000
1FFF0000
0FFFC000
07FF8000
03FF0000
03FE0000
01FE0000
00FB0000
00718000
0020C000
00006000
00002000
00001000
00000800
00000400
00000200
00000100
00000080
00000040
00000020
00000010
ENDCHAR
STARTCHAR 0025
ENCODING 37
SWIDTH 960 0
DWIDTH 28 0
BBX 26 30 1 -6
BITMAP
000E0000
001E0000
001F0000
007F8000
01FFF000
07FFF800
7FFFFD80
FF8E7FC0
FF0C1FC0
FE0C1FC0
7F0C3F80
3F8C7F80
7FECF780
787F8380
781F0380
783F0380
78FFC380
7FCCFF80
3F8C7F80
7F0C3FC0
FE0C1FC0
FF0E3FC0
FFDE7FC0
07FFFC00
03FFF000
00FFE000
003F0000
001E0000
001E0000
000C0000
ENDCHAR
STARTCHAR 0026
ENCODING 38
SWIDTH 960 0
DWIDTH 28 0
BBX 28 28 0 -5
BITMAP
003FE000
01FFF800
03801C00
06060700
0C3FE380
18FFF180
31FFF8C0
33FFFC60
67FFFE60
67BFFE20
4FDFDF30
CFEFBF30
CFF77F30
CFF8FF30
CFF9FF30
CFFDFF30
CFFFFF30
47FFFF30
67FFFE60
63FFFE60
33FFFCC0
19FFF8C0
1C7FF180
0E1F8300
07000E00
01E03C00
00FFF000
00068000
ENDCHAR
STARTCHAR 0027
ENCODING 39
SWIDTH 960 0
DWIDTH 28 0
BBX 28 28 0 -5
BITMAP
01FE0000
07FF8000
0FFFC000
1FFFE000
3F03F000
3E11F800
7C30F800
78307C00
F8307C00
F9FF3C00
F3FF3C00
FBFF3C00
F8303C00
78307C00
7C307800
7E10F800
3F03F800
1FFFFC00
0FFFFE00
07FFFF00
01FFFF80
00307FC0
00003FE0
00001FF0
00000FF0
000007F0
000003E0
000001C0
ENDCHAR
STARTCHAR 0028
ENCODING 40
SWIDTH 960 0
DWIDTH 28 0
BBX 28 28 0 -5
BITMAP
01FF0000
07FF8000
0FFFE000
1FFFF000
3F03F000
7E00F800
7C007800
78007C00
F8003C00
FBFF3C00
F3FF3C00
F9FE3C00
F8003C00
78007C00
7C00F800
7E00F800
3F03FC00
1FFFFE00
0FFFFF00
07FFFF80
01FEFF80
00007FC0
00003FE0
00001FF0
00000FF0
000007F0
000003E0
000001C0
ENDCHAR
STARTCHAR 0029
ENCODING 41
SWIDTH 960 0
DWIDTH 28 0
BBX 28 21 0 -1
BITMAP
3FFFFFE0
FFFFFFF0
F0000070
F80000F0
DC0001F0
CE0003B0
C7000730
C3800E30
C1C01C30
C0E03830
C0707030
C078F030
C0DFF830
C18F9C30
C3000E30
C6000730
CC0003B0
D80001F0
F00000F0
E0000070
FFFFFFF0
ENDCHAR
STARTCHAR 002A
ENCODING 42
SWIDTH 960 0
DWIDTH 28 0
BBX 24 30 2 -6
BITMAP
003C00
003C00
003C00
003C00
003C00
003C00
003C00
043C20
0F3DE0
07FFE0
03FFC0
01FF80
7EFF7E
BF7EFF
DFBDFF
EFDBFF
F7E7FF
FBFFFF
FDFFFF
FEFFFF
FF7FFF
FF3E7F
FFD9BF
FFE7DF
FFFFEF
FFFFF7
FFFFFB
FFFFFD
7FFFFE
7FFFFE
ENDCHAR
STARTCHAR 002B
ENCODING 43
SWIDTH 960 0
DWIDTH 28 0
BBX 28 28 0 -5
BITMAP
FFFFFFF0
FFFFFFF0
FFFFFFF0
EFFFFFF0
E07FE070
F0FFF070
F07FE070
F03FC070
F43FC270
FE7FE770
FFFFFFF0
FFFFFFF0
FFFFFFF0
FFFFFFF0
FFFFFFF0
FFFFFFF0
FFFFFFF0
FFFFF7F0
F67FE370
F03FC070
F07FE070
F0FFF070
E07FF070
E03FE070
FFFFFFF0
FFFFFFF0
FFFFFFF0
FFFFFFF0
ENDCHAR
STARTCHAR 002C
ENCODING 44
SWIDTH 960 0
DWIDTH 28 0
BBX 28 28 0 -5
BITMAP
00000F00
0000FF80
0001FFC0
0003FFE0
0007FDF0
000FF8F0
001FFDF0
003FFFF0
007FFFE0
00FFFFE0
01FFFFE0
03FFFFE0
073FFFC0
0F9FFF80
1DCFFF00
3CE7FE00
FE73FC00
7F39F800
3F9CF000
1FCEE000
0FE7C000
07F38000
03FF0000
01FE0000
00FC0000
00780000
00300000
00100000
ENDCHAR
STARTCHAR 002D
ENCODING 45
SWIDTH 960 0
DWIDTH 28 0
BBX 28 28 0 -5
BITMAP
003FC000
01FFF800
03C01C00
07000700
0C000380
1E002180
330060C0
3180E060
60C0E060
6061E020
407FE030
C07FE030
C07FE030
C07FE030
C07FE030
C07FE030
C07FE030
6003E030
6001E060
6000E860
30006CC0
180027C0
1C000380
0E000700
07000E00
01E07C00
00FFF000
000F0000
ENDCHAR
STARTCHAR 002E
ENCODING 46
SWIDTH 960 0
DWIDTH 28 0
BBX 24 30 2 -6
BITMAP
3FFFFE
200002
200002
200002
200002
200002
200002
200002
200002
200002
200002
200002
200002
200002
3FFFFE
000000
000000
3FFFFE
3FFF0E
3FFE0E
3FFFFE
3FFFFE
000800
000800
000800
000800
00FF80
00FF80
FFFFFF
00FF80
ENDCHAR
STARTCHAR 002F
ENCODING 47
SWIDTH 960 0
DWIDTH 28 0
BBX 28 29 0 -5
BITMAP
00020000
181F8080
183FC180
0C7FE180
4C7FE310
CC7FE330
667FE330
667FE760
667FE660
667FE660
667FE660
667FE660
767FE660
667FE660
667FE660
667FE660
667FE760
667FE730
CE7FE330
CC7FE330
0C3FC300
181F8180
180F8180
100F8080
000F8000
000F8000
000F8000
000F8000
000F0000
ENDCHAR
STARTCHAR 0030
ENCODING 48
SWIDTH 960 0
DWIDTH 28 0
BBX 28 28 0 -5
BITMAP
003FC000
01FFF800
03FFFC00
07FFFF00
0FFFFF80
1E7FE780
3C3FC3C0
381FC1E0
781F81E0
700F80E0
700F00F0
F01F8070
F018C070
E030C070
FFF0FFF0
FFF9FFF0
FFFFFFF0
7FF6FFF0
7FE07FE0
7FE07FE0
3FC03FC0
3FC03FC0
1F801F80
0FC01F00
07FFFE00
01FFFC00
00FFF000
001F8000
ENDCHAR
STARTCHAR 0031
ENCODING 49
SWIDTH 960 0
DWIDTH 28 0
BBX 27 30 1 -6
BITMAP
003F0000
003F0000
003F0000
00BF2000
033F3000
073F3C00
1F3F3E00
1F3F3F00
3E3F1F00
7C3F0F80
783F0780
F83F07C0
F03F03C0
F03F03C0
F03F03E0
F03F01E0
F01F01E0
F00001E0
F00003C0
F00003C0
F80003C0
780007C0
7C000F80
3E001F80
3F803F00
1FF3FE00
0FFFFC00
03FFF800
00FFE000
001F0000
ENDCHAR
STARTCHAR 0032
ENCODING 50
SWIDTH 960 0
DWIDTH 28 0
BBX 26 30 1 -6
BITMAP
001E0000
001E0000
001F0000
001E0000
001E0000
001E0000
701E0380
F81E07C0
FC0C0FC0
FE0C1FC0
7F0C3F80
1F8C7E00
07ECF000
007F8000
003F0000
003F0000
00FFC000
0FCCFC00
3F8C7F80
7F0C3FC0
FE0C1FC0
FC0E0FC0
F81E03C0
001E0000
001E0000
001E0000
001F0000
001E0000
001E0000
000C0000
ENDCHAR
STARTCHAR 0033
ENCODING 51
SWIDTH 960 0
DWIDTH 28 0
BBX 28 26 0 -4
BITMAP
00020000
00060000
00070000
000F0000
000F8000
001F8000
001FC000
003FC000
00FFF000
FFFFFFF0
7FFFFFE0
3FFFFFC0
1FFFFF80
0FFFFF00
07FFFE00
03FFFC00
01FFF800
01FFF800
01FFF800
01FFFC00
03FFFC00
03FFFC00
03F0FC00
03C03C00
03000E00
02000200
ENDCHAR
STARTCHAR 0034
ENCODING 52
SWIDTH 960 0
DWIDTH 28 0
BBX 28 20 0 -1
BITMAP
7FFFFFE0
BFFFFFD0
DFFFFFB0
EFFFFF70
F7FFFEF0
FBFFFDF0
FDFFFBF0
FEFFF7F0
FF7FEFF0
FFBFDFF0
FF9F9FF0
FF6F6FF0
FEF0F7F0
FDFFFBF0
FBFFFDF0
F7FFFEF0
EFFFFF70
DFFFFFB0
BFFFFFD0
3FFFFFE0
ENDCHAR
STARTCHAR 0035
ENCODING 53
SWIDTH 960 0
DWIDTH 28 0
BBX 28 21 0 -2
BITMAP
00073C00
0019BC00
00367C00
00CF3C00
019FDC00
067FE600
0CFFF300
33FFFCC0
67FFFE60
8FFFFF10
0FFFFF00
0FFFFF00
0FF07F00
0FF07F00
0FF07F00
0FF07F00
0FF07F00
0FF07F00
0FF07F00
0FF07F00
0FF07F00
ENDCHAR
STARTCHAR 0036
ENCODING 54
SWIDTH 960 0
DWIDTH 28 0
BBX 28 30 0 -6
BITMAP
06000E00
0F001E00
0F001F00
0F001E00
06000E00
00001E00
7FE07F80
FFE07FC0
FFF0FFC0
DFB0DFC0
DFB0FF60
DFB1FF60
DFB1BFE0
DFB1FFB0
DFB3FFB0
DFB37FF0
DFB07FC0
1F80FFC0
1F80FFC0
1F80FFE0
1F801F00
1F801F00
1F801F00
1F801F00
1F801F00
1F801F00
1F801F00
1F801F00
1F801F00
00001200
ENDCHAR
STARTCHAR 0037
ENCODING 55
SWIDTH 960 0
DWIDTH 28 0
BBX 28 21 0 -1
BITMAP
00FC0000
03FF0000
0F87C000
1F03E000
3F03F000
3F03F000
7F07F800
7FCFF800
E1FE1800
C0FC0C00
C0FC0C00
C0FC0C00
E1FC1800
73DF7800
7F87F800
7F03F000
3F03F000
1F03F000
0F87F070
07FF9FE0
03FE0F80
ENDCHAR
STARTCHAR 0038
ENCODING 56
SWIDTH 960 0
DWIDTH 28 0
BBX 22 30 3 -6
BITMAP
7FFFFC
FFFFFC
E0001C
C0000C
C0000C
C0000C
C0000C
E0000C
FFFFFC
FFFFFC
E3870C
E1870C
E1870C
E1870C
FFFFFC
FFFFFC
FFFFFC
E1870C
E1870C
E1870C
FFFFFC
FFFFFC
FFFFFC
E1870C
E1870C
E1870C
E3870C
FFFFFC
FFFFFC
7FFFF8
ENDCHAR
STARTCHAR 0039
ENCODING 57
SWIDTH 960 0
DWIDTH 28 0
BBX 28 27 0 -4
BITMAP
40000000
E0000000
70000000
38000000
18FFFFF0
0CFFFFE0
0CFFFFE0
067FFFE0
067FFFC0
067FFFC0
077FFF80
037FFF80
037FFF00
033FFF00
03000000
03000000
01800000
01800000
01FFFFC0
01FFFFC0
00000000
00800200
03E00780
03E00FC0
03F00FC0
03E00FC0
01C00780
ENDCHAR
STARTCHAR 003A
ENCODING 58
SWIDTH 960 0
DWIDTH 28 0
BBX 28 28 0 -5
BITMAP
00007E00
0001FF80
0003FFC0
0007FDE0
0007F0E0
000FF070
000FF0F0
000FF9F0
000FFFF0
000FFFF0
000FFFF0
0017FFE0
0037FFE0
0073FFC0
00F9FF80
01FC7E00
03FF8000
07FC0000
0FFC0000
1FFC0000
3FF00000
7F000000
FF000000
FF000000
FF000000
7C000000
7C000000
1C000000
ENDCHAR
STARTCHAR 003B
ENCODING 59
SWIDTH 960 0
DWIDTH 28 0
BBX 28 28 0 -5
BITMAP
00060000
00060000
00060000
00060000
00060000
00060000
00060000
00060000
00060000
00060000
00060000
00060000
00060000
FFFFFFF0
FFFFFFF0
00060000
00060000
00060000
00060000
00060000
00060000
00060000
00060000
00060000
00060000
00060000
00060000
00060000
ENDCHAR
STARTCHAR 003C
ENCODING 60
SWIDTH 960 0
DWIDTH 28 0
BBX 28 23 0 -2
BITMAP
00020000
00060000
00070000
000F8000
001F8000
001DC000
0039C000
0030E000
0070E000
00E07000
00E03800
01C03800
01801C00
03801C00
07000E00
07000700
0E000700
0C000380
1C000380
380001C0
380000E0
700000E0
E0000070
ENDCHAR
STARTCHAR 003D
ENCODING 61
SWIDTH 960 0
DWIDTH 28 0
BBX 28 28 0 -5
BITMAP
003FC000
00E03800
03000C00
06000300
08000180
13FF8080
30E1C040
20E0E060
60E0F020
40E07020
40E07030
C0E0E010
80E1E010
80FF8010
80E70010
C0E78010
C0E38010
40E1C030
40E0E020
60E0E060
20E07040
33F83CC0
18000180
0C000300
06000600
01801C00
00FFF000
00070000
ENDCHAR
STARTCHAR 003E
ENCODING 62
SWIDTH 960 0
DWIDTH 28 0
BBX 28 28 0 -5
BITMAP
003FC000
00E07800
03000C00
06000300
08000180
101FC880
30703840
20C01860
61C00820
43800820
43800030
C7800010
87000010
87000010
C7000010
C7800010
C7800010
43800030
43800420
61C00860
20E01040
303FE0C0
18060180
0C000300
06000600
01801C00
00FFF000
00070000
ENDCHAR
STARTCHAR 003F
ENCODING 63
SWIDTH 960 0
DWIDTH 28 0
BBX 28 28 0 -5
BITMAP
003FC000
00FFF800
03FFFC00
07E07E00
0F800F00
1E000780
3C0003C0
380001E0
780000E0
700000E0
700000F0
F0000070
E0000070
E0000070
E0000070
E0000070
F0000070
700000F0
700000E0
780001E0
3C0001C0
1E0003C0
1F000780
0F801F00
07F8FE00
01FFFC00
00FFF000
001F0000
ENDCHAR
STARTCHAR 0040
ENCODING 64
SWIDTH 960 0
DWIDTH 28 0
BBX 28 28 0 -5
BITMAP
00020000
00060000
00060000
000F0000
000F0000
001F8000
001F8000
003FC000
003FC000
007FE000
007FE000
00FFF000
00FFF000
01FFF800
01FFF800
03FFFC00
03FFFC00
07FFFE00
07FFFE00
0FFFFF00
0FFFFF00
1FFFFF80
1FFFFF80
3FFFFFC0
3FFFFFC0
7FFFFFE0
7FFFFFE0
FFFFFFF0
ENDCHAR
STARTCHAR 0041
ENCODING 65
SWIDTH 960 0
DWIDTH 28 0
BBX 28 27 0 -4
BITMAP
80200000
C0300000
E0380000
F03C0000
FC3F0000
FE3F8000
FF3FC000
FFDFF000
FFEFF800
FFF3FC00
FFFDFF00
FFFEFF80
FFFF3FC0
FFFFDFF0
FFFFBFE0
FFFF7FC0
FFFCFF00
FFFBFE00
FFF7FC00
FFCFF000
FFBFE000
FF3FC000
FC3F0000
F83E0000
F03C0000
C0300000
80200000
ENDCHAR
STARTCHAR 0042
ENCODING 66
SWIDTH 960 0
DWIDTH 28 0
BBX 24 30 2 -6
BITMAP
80003F
E0003F
F0003F
FC003F
FE003F
FF803F
FFE03F
FFF03F
FFFC3F
FFFF3F
FFFFBF
FFFFFF
FFFFFF
FFFFFF
FFFFFF
FFFFFF
FFFFFF
FFFFFF
FFFFFF
FFFFBF
FFFE3F
FFF83F
FFF03F
FFC03F
FF003F
FE003F
F8003F
E0003F
C0003F
80003F
ENDCHAR
STARTCHAR 0043
ENCODING 67
SWIDTH 960 0
DWIDTH 28 0
BBX 22 30 3 -6
BITMAP
FF87FC
FF87FC
FF87FC
FF87FC
FF87FC
FF87FC
FF87FC
FF87FC
FF87FC
FF87FC
FF87FC
FF87FC
FF87FC
FF87FC
FF87FC
FF87FC
FF87FC
FF87FC
FF87FC
FF87FC
FF87FC
FF87FC
FF87FC
FF87FC
FF87FC
FF87FC
FF87FC
FF87FC
FF87FC
FF87FC
ENDCHAR
STARTCHAR 0044
ENCODING 68
SWIDTH 960 0
DWIDTH 28 0
BBX 24 30 2 -6
BITMAP
800000
C00000
F00000
FC0000
FE0000
FF8000
FFE000
FFF000
FFFC00
FFFF00
FFFF80
FFFFE0
FFFFF0
FFFFFC
FFFFFF
FFFFFE
FFFFFC
FFFFF0
FFFFC0
FFFF80
FFFE00
FFF800
FFF000
FFC000
FF0000
FE0000
F80000
F00000
C00000
800000
ENDCHAR
STARTCHAR 0045
ENCODING 69
SWIDTH 960 0
DWIDTH 28 0
BBX 28 28 0 -5
BITMAP
003FC000
00FFF800
03FFFC00
07FFFE00
0FFFFF00
1FFFFF80
3FFFFFC0
3FFFFFE0
7FE07FE0
7FC01FE0
7F801FF0
FF000FF0
FF000FF0
FF000FF0
FF000FF0
FF000FF0
7F800FF0
7F801FF0
7FC03FE0
7FF0FFE0
3FFFFFC0
1FFFFFC0
1FFFFF80
0FFFFF00
07FFFE00
01FFFC00
007FF000
000F8000
ENDCHAR
STARTCHAR 0046
ENCODING 70
SWIDTH 960 0
DWIDTH 28 0
BBX 28 28 0 -5
BITMAP
FFFFFFF0
FFFFFFF0
FFFFFFF0
FFFFFFF0
FFFFFFF0
FFFFFFF0
FFFFFFF0
FFFFFFF0
FFFFFFF0
FFFFFFF0
FFFFFFF0
FFFFFFF0
FFFFFFF0
FFFFFFF0
FFFFFFF0
FFFFFFF0
FFFFFFF0
FFFFFFF0
FFFFFFF0
FFFFFFF0
FFFFFFF0
FFFFFFF0
FFFFFFF0
FFFFFFF0
FFFFFFF0
FFFFFFF0
FFFFFFF0
FFFFFFF0
ENDCHAR
STARTCHAR 0047
ENCODING 71
SWIDTH 960 0
DWIDTH 28 0
BBX 24 30 2 -6
BITMAP
FC0001
FC0003
FC000F
FC001F
FC007F
FC01FF
FC03FF
FC0FFF
FC3FFF
FC7FFF
FDFFFF
FFFFFF
FFFFFF
FFFFFF
FFFFFF
FFFFFF
FFFFFF
FFFFFF
FFFFFF
FCFFFF
FC7FFF
FC1FFF
FC07FF
FC03FF
FC00FF
FC007F
FC001F
FC0007
FC0003
FC0001
ENDCHAR
STARTCHAR 0048
ENCODING 72
SWIDTH 960 0
DWIDTH 28 0
BBX 28 27 0 -4
BITMAP
00004010
00004010
0001C070
0003C0F0
0007C1F0
001FC7F0
003FCFF0
007F9FF0
01FF7FF0
03FEFFF0
07F9FFF0
1FF7FFF0
3FEFFFF0
FFBFFFF0
7FDFFFF0
1FE7FFF0
0FFBFFF0
07FDFFF0
01FE7FF0
00FF3FF0
007FDFF0
001FCFF0
000FC3F0
0007C1F0
0003C0F0
0000C030
00004010
ENDCHAR
STARTCHAR 0049
ENCODING 73
SWIDTH 960 0
DWIDTH 28 0
BBX 28 28 0 -5
BITMAP
E4000000
E7000000
E7800000
E7800000
E7880000
E78E0000
E78F0000
E78FC000
E78FE000
E78FF800
E78FFE00
E78FFF00
E78FFFC0
E78FFFF0
E78FFFE0
E78FFF80
E78FFF00
E78FFC00
E78FF000
E78FE000
E78F8000
E78E0000
E78C0000
E7900000
E7800000
E7800000
E6000000
E4000000
ENDCHAR
STARTCHAR 004A
ENCODING 74
SWIDTH 960 0
DWIDTH 28 0
BBX 28 27 0 -4
BITMAP
00020000
00060000
000F0000
000F8000
001F8000
003FC000
007FE000
007FF000
00FFF000
01FFF800
03FFFC00
03FFFE00
07FFFE00
0FFFFF00
1FFFFF80
1FFFFFC0
3FFFFFE0
7FFFFFE0
FFFFFFF0
00000000
00000000
FFFFFFF0
FFFFFFF0
FFFFFFF0
FFFFFFF0
FFFFFFF0
FFFFFFF0
ENDCHAR
STARTCHAR 004B
ENCODING 75
SWIDTH 960 0
DWIDTH 28 0
BBX 28 28 0 -5
BITMAP
00000380
00000780
00000780
00000F00
00000F00
00001E00
00001E00
00003C00
3FFFFC00
3FFFF800
7FFFF800
FFFFFC00
0FFFFC00
003FFE00
0003FE00
0007FF00
0007BF80
000F3F80
001E1FC0
001E0FC0
003C07E0
03F803E0
07F801F0
01FC00F0
003C0060
001C0040
000C0000
00040000
ENDCHAR
STARTCHAR 004C
ENCODING 76
SWIDTH 960 0
DWIDTH 28 0
BBX 24 30 2 -6
BITMAP
000010
000010
000030
01FE38
07FFF8
0FFFF8
1FFFFC
3C0FFC
6003FE
8003FE
0007FF
0007FF
000FC0
001000
000000
000000
001800
1FF000
FFE000
7FE000
7FC001
3FE00E
3FF87C
1FFFF8
1FFFF0
1FFFE0
0C0E00
0C0000
040000
040000
ENDCHAR
STARTCHAR 004D
ENCODING 77
SWIDTH 960 0
DWIDTH 28 0
BBX 28 24 0 -3
BITMAP
00FF0000
03FFC000
07FFF000
0FE7F800
1F00F800
3E003C00
7C001E00
78001E00
70000E00
F000FFF0
F0007FE0
F0003FC0
F0003F80
F0001F80
70000F00
78000600
78000400
3C000000
3E004000
1F81C000
0FFFC000
07FFE000
01FF8000
00380000
ENDCHAR
STARTCHAR 004E
ENCODING 78
SWIDTH 960 0
DWIDTH 28 0
BBX 28 20 0 -1
BITMAP
000001C0
000003E0
000007F0
00000FF0
00001FE0
00003FC0
38007F80
7C00FF00
FE01FE00
FF03FC00
7F87F800
3FCFF000
1FFFE000
0FFFC000
07FF8000
03FF0000
01FE0000
00FC0000
00780000
00300000
ENDCHAR
STARTCHAR 004F
ENCODING 79
SWIDTH 960 0
DWIDTH 28 0
BBX 28 28 0 -5
BITMAP
7F000000
FFF00000
FFFC0000
FFFF0000
7FFF8000
01FFE000
003FF000
000FF800
7E03FC00
7FC1FE00
FFF07E00
FFF83F00
7FFC3F80
07FE1F80
00FF0FC0
003F8FC0
001FC7E0
000FC7E0
0C07E3E0
3F07E3E0
7F83E3F0
FF83F3F0
FFC3F1F0
FFC1F1F0
FF81F1F0
7F81F1F0
3F01E1F0
0C0040C0
ENDCHAR
STARTCHAR 0050
ENCODING 80
SWIDTH 960 0
DWIDTH 28 0
BBX 26 30 1 -6
BITMAP
003F0000
00FFE000
03FFF000
07FFF800
0FF3FC00
0FC07C00
1F003E00
1F001E00
1E001F00
3E001F00
3E000F00
3E000F00
3E000F00
FFFFFFC0
FFFFFFC0
FFFFFFC0
FFFFFFC0
FFF3FFC0
FFE1FFC0
FFE1FFC0
FFF3FFC0
FFF3FFC0
FFF3FFC0
FFF3FFC0
FFF3FFC0
FFF1FFC0
FFFFFFC0
FFFFFFC0
FFFFFFC0
FFFFFFC0
ENDCHAR
STARTCHAR 0051
ENCODING 81
SWIDTH 960 0
DWIDTH 28 0
BBX 28 28 0 -5
BITMAP
03FFFC00
03FFFC00
03FFFC00
03FFFC00
03FFFC00
03FFFC00
03FFFC00
03FFFC00
03FFFC00
03FFFC00
00020000
00020000
00020000
00020000
03FFFE00
02000200
02000200
02000200
FFF0FFF0
FFF0FFF0
FFF0FFF0
FFF0FFF0
FFF0FFF0
FFF0FFF0
FFF0FFF0
FFF0FFF0
FFF0FFF0
FFF0FFF0
ENDCHAR
STARTCHAR 0052
ENCODING 82
SWIDTH 960 0
DWIDTH 28 0
BBX 28 17 0 1
BITMAP
00100000
00180000
001C0000
03FF3C00
1FFFBF80
3FFFBFC0
7FFF3FE0
781E01F0
F01C00F0
F0100070
F0000070
F00000F0
780000F0
7E0003E0
3FFFFFE0
1FFFFFC0
0FFFFF00
ENDCHAR
STARTCHAR 0053
ENCODING 83
SWIDTH 960 0
DWIDTH 28 0
BBX 28 23 0 -2
BITMAP
00003000
00007800
0000FC00
0001FE00
7FF3FF00
FFF7FF80
FFEFFFC0
FFDFFFE0
FFFF7BF0
F81C78F0
F3C37B80
F7FF7BF0
F7FF7BF0
EFFF7BE0
EFFF7BE0
EFFF7BE0
CFFF7BE0
DFFF7BC0
DFFFBBC0
DFFFCFC0
BFFFFF80
7FFFFF80
3FFFFF80
ENDCHAR
STARTCHAR 0054
ENCODING 84
SWIDTH 960 0
DWIDTH 28 0
BBX 28 28 0 -5
BITMAP
003FC000
00FFF800
03FFFC00
07FFFE00
0FE07F00
1F801F80
3F8007C0
3FC003E0
7DE003E0
78F001E0
787801F0
F83C00F0
F01E00F0
F00F00F0
F00780F0
F003C0F0
F801E1F0
7800F1E0
7C0079E0
7C003FE0
3E001FC0
3F000FC0
1FC03F80
0FF9FF00
07FFFE00
01FFFC00
00FFF000
000F0000
ENDCHAR
STARTCHAR 0055
ENCODING 85
SWIDTH 960 0
DWIDTH 28 0
BBX 28 25 0 -3
BITMAP
00020000
00060000
000E0000
001E0000
003E0000
007E0000
007E0000
00FE0000
FFFE0000
FFFE0000
FFFE0000
FFFE3FF0
FFFE3FF0
FFFE3FF0
FFFE0000
FFFE0000
FFFE0000
7FFE0000
00FE0000
007E0000
003E0000
001E0000
000E0000
00060000
00020000
ENDCHAR
STARTCHAR 0056
ENCODING 86
SWIDTH 960 0
DWIDTH 28 0
BBX 28 26 0 -4
BITMAP
00030000
00070000
000F0000
000F0000
001F0000
003F0000
007F0000
00FF0000
FFFF0780
FFFF0780
FFFF0780
FFFF3FF0
FFFF3FF0
FFFF3FF0
FFFF0780
FFFF0780
FFFF0780
FFFF0780
00FF0000
007F0000
003F0000
001F0000
000F0000
00070000
00030000
00020000
ENDCHAR
STARTCHAR 0057
ENCODING 87
SWIDTH 960 0
DWIDTH 28 0
BBX 28 27 0 -4
BITMAP
03000E00
1FE03FC0
3FF0FFE0
7FF9FFE0
7FF9FFF0
FFFFFFF0
FFFFFFF0
FFFFFFF0
7FFFFFF0
7FFFFFF0
3FFFFFE0
3FFFFFC0
1FFFFFC0
0FFFFF80
07FFFF00
03FFFE00
01FFFC00
00FFF800
007FF000
003FE000
001FC000
000F8000
00070000
00070000
00020000
00020000
00020000
ENDCHAR
STARTCHAR 0058
ENCODING 88
SWIDTH 960 0
DWIDTH 28 0
BBX 23 30 3 -6
BITMAP
070000
070000
070000
070000
070000
070000
070000
070000
073000
073800
0739C0
0739CE
C739CE
E7FBDE
E7FFFE
E7FFFE
E7FFFE
E7FFFE
EFFFFE
FFFFFE
FFFFFE
FFFFFE
7FFFFE
7FFFFE
3FFFFE
1FFFFE
1FFFFE
0FFFFE
0FFFFC
03FFF8
ENDCHAR
STARTCHAR 0059
ENCODING 89
SWIDTH 960 0
DWIDTH 28 0
BBX 21 30 4 -6
BITMAP
006000
007000
007000
0E7700
0E7700
0E7700
0E7730
0E7738
0E7738
0E7738
0E7738
0E7738
0E7738
0E7738
CE7738
CFFFF8
CFFFF8
CFFFF8
CFFFF8
EFFFF8
FFFFF8
FFFFF8
FFFFF8
7FFFF8
7FFFF8
3FFFF8
1FFFF8
1FFFF8
0FFFF0
07FFC0
ENDCHAR
STARTCHAR 005A
ENCODING 90
SWIDTH 960 0
DWIDTH 28 0
BBX 28 28 0 -4
BITMAP
00000180
00018180
000381C0
000780C0
000F98E0
001F9CE0
003F8CE0
007F8C60
00FF8E70
FFFF8E70
FFFF8E70
FFFF8E70
FFFF8E70
FFFF8670
FFFF8670
FFFF8E70
FFFF8E70
FFFF8E70
FFFF8E70
FFFF8C60
007F8C60
003F9CE0
001F98E0
001F98C0
000F81C0
00078180
00038180
00018100
ENDCHAR
STARTCHAR 005B
ENCODING 91
SWIDTH 960 0
DWIDTH 28 0
BBX 28 27 0 -4
BITMAP
80000000
E0000000
F8000000
FE000000
FF800000
FFE00000
FFF80000
FFFE0000
FFFF8000
FFFFE000
FFFFF800
FFFFFE00
FFFFFF80
FFFFFFF0
FFFFFFC0
FFFFFF00
FFFFFC00
FFFFF000
FFFFC000
FFFF0000
FFFC0000
FFF00000
FFC00000
FF000000
FC000000
F0000000
C0000000
ENDCHAR
STARTCHAR 005C
ENCODING 92
SWIDTH 960 0
DWIDTH 28 0
BBX 28 28 0 -5
BITMAP
FFFFFFF0
7FFFFFE0
3FFFFFE0
3FFFFFC0
1FFFFFC0
1FFFFF80
0FFFFF80
0FFFFF00
07FFFF00
07FFFE00
03FFFE00
03FFFC00
01FFFC00
01FFF800
00FFF800
00FFF000
007FF000
007FE000
003FE000
003FC000
001FC000
001F8000
000F8000
000F0000
00070000
00060000
00020000
00020000
ENDCHAR
STARTCHAR 005D
ENCODING 93
SWIDTH 960 0
DWIDTH 28 0
BBX 28 28 0 -5
BITMAP
00000010
00000070
000001F0
000007F0
00001FF0
00007FF0
0001FFF0
0007FFF0
001FFFF0
007FFFF0
01FFFFF0
07FFFFF0
1FFFFFF0
FFFFFFF0
3FFFFFF0
0FFFFFF0
03FFFFF0
00FFFFF0
003FFFF0
000FFFF0
0003FFF0
0000FFF0
00003FF0
00000FF0
000003F0
000000F0
00000030
00000010
ENDCHAR
STARTCHAR 005E
ENCODING 94
SWIDTH 960 0
DWIDTH 28 0
BBX 28 10 0 4
BITMAP
08000100
08000080
100000C0
300000E0
FFFFFFF0
7FFFFFE0
300000C0
10000080
08000100
04000100
ENDCHAR
STARTCHAR 005F
ENCODING 95
SWIDTH 960 0
DWIDTH 28 0
BBX 10 30 9 -6
BITMAP
0400
0E00
1F00
3F80
CCC0
0C00
0C00
0C00
0C00
0C00
0C00
0C00
0C00
0C00
0C00
0C00
0C00
0C00
0C00
0C00
0C00
0C00
0C00
0C00
8C40
6D80
3F00
1E00
0C00
0400
ENDCHAR
STARTCHAR 0060
ENCODING 96
SWIDTH 960 0
DWIDTH 28 0
BBX 11 30 9 -6
BITMAP
0E00
0E00
0E00
0E00
0E00
0E00
0E00
0E00
0E00
0E00
0E00
0E00
0E00
0E00
0E00
0E00
0E00
0E00
0E00
0E00
0E00
0E00
0E00
0E00
8E20
6FC0
3F00
1E00
0C00
0400
ENDCHAR
STARTCHAR 0061
ENCODING 97
SWIDTH 960 0
DWIDTH 28 0
BBX 28 16 0 1
BITMAP
00000100
00000100
00FF8380
03FFE380
07FFFF80
0FFFFF80
1FFFFFC0
1FFFFFC0
3C07FFC0
3001FFC0
6000FFE0
8001FFE0
8001FFE0
0003FFE0
0007FFF0
000FFFF0
ENDCHAR
STARTCHAR 0062
ENCODING 98
SWIDTH 960 0
DWIDTH 28 0
BBX 28 16 0 1
BITMAP
08000000
08000000
0C0FF000
0E3FFC00
1EFFFE00
1FFFFF00
1FFFFF80
1FFFFF80
3FFE03C0
3FF800E0
3FF00060
3FF80010
7FFC0010
7FFE0000
7FFE0000
FFFF8000
ENDCHAR
STARTCHAR 0063
ENCODING 99
SWIDTH 960 0
DWIDTH 28 0
BBX 28 30 0 -6
BITMAP
000F8000
001FC000
001FC000
001FC000
001FC000
001FC000
001FC000
001FC000
001FC000
001FC000
001FC000
001FC000
001FC000
001FC000
781FC1E0
FE1FC7F0
FF9FDFF0
7FFFFFF0
3FFFFFE0
1FFFFFC0
0FFFFF80
07FFFF00
03FFFE00
01FFFC00
00FFF800
007FF000
003FE000
001FC000
000F8000
00070000
ENDCHAR
STARTCHAR 0064
ENCODING 100
SWIDTH 960 0
DWIDTH 28 0
BBX 28 28 0 -5
BITMAP
00000380
000007C0
10000FE0
78001FE0
7C003FF0
FC007FF0
FE00FFE0
FE01FFC0
FE03FF80
FF07FF00
FF0FFE00
FF1FFC00
FFBFF800
FFFFF000
FFFFE000
FFFFC000
FFFF8000
FFFF0000
FFFE0000
FFFF0000
FFFFC000
FFFFF800
FFFFFF00
FFFFFF80
FFFFFF80
7FFFFF80
7FFFFF80
3FFFFF00
ENDCHAR
STARTCHAR 0065
ENCODING 101
SWIDTH 960 0
DWIDTH 28 0
BBX 28 28 0 -5
BITMAP
0E000000
1F000000
3F800080
7FC001E0
FFE003F0
7FF003F0
7FF807F0
3FFC07F0
1FFE07F0
0FFF0FF0
07FF8FF0
03FFCFF0
01FFFFF0
00FFFFF0
007FFFF0
003FFFF0
001FFFF0
000FFFF0
0007FFF0
0007FFF0
003FFFF0
01FFFFF0
07FFFFF0
1FFFFFF0
1FFFFFF0
1FFFFFF0
1FFFFFE0
07FFFFC0
ENDCHAR
STARTCHAR 0066
ENCODING 102
SWIDTH 960 0
DWIDTH 28 0
BBX 28 26 0 -4
BITMAP
000E0000
001E0000
003E0000
007E0000
01FE0000
03FC0000
07FC0000
0FF80000
1FF80000
3FF00000
7FFFFFF0
7FFFFFF0
FFFFFFF0
FFFFFFF0
7FFFFFF0
3FFFFFF0
1FF00000
0FF80000
07F80000
03FC0000
01FC0000
00FE0000
007E0000
003E0000
001E0000
00040000
ENDCHAR
STARTCHAR 0067
ENCODING 103
SWIDTH 960 0
DWIDTH 28 0
BBX 28 26 0 -4
BITMAP
00078000
0007C000
0007E000
0007F000
0003F800
0003FC00
0001FE00
0001FF00
0000FF80
0000FFC0
7FFFFFE0
FFFFFFF0
FFFFFFF0
FFFFFFF0
FFFFFFF0
7FFFFFE0
0000FFC0
0000FF80
0001FF00
0001FE00
0003FC00
0003F800
0007F000
0007E000
0007C000
00030000
ENDCHAR
STARTCHAR 0068
ENCODING 104
SWIDTH 960 0
DWIDTH 28 0
BBX 28 30 0 -6
BITMAP
000F0000
001F8000
003FC000
007FE000
00FFF000
01FFF800
03FFFC00
07FFFE00
0FFFFF00
1FFFFF80
3FFFFFC0
7FFFFFE0
7FFFFFF0
FF9FDFF0
FE1FC7F0
781FC1E0
001FC000
001FC000
001FC000
001FC000
001FC000
001FC000
001FC000
001FC000
001FC000
001FC000
001FC000
001FC000
001FC000
000F8000
ENDCHAR
STARTCHAR 0069
ENCODING 105
SWIDTH 960 0
DWIDTH 28 0
BBX 28 28 0 -5
BITMAP
7FFFFF00
7FFFFF80
FFFFFFC0
FFFFFFC0
FFFFFF80
FFFFFE00
FFFFF800
FFFFC000
FFFE0000
FFFE0000
FFFF0000
FFFF8000
FFFFC000
FFFFE000
FFFFF000
FFBFF800
FF1FFC00
FF0FFE00
FF07FF00
FE03FF80
FE01FFC0
FE00FFE0
FC007FF0
7C003FF0
38001FF0
00000FE0
000007C0
00000380
ENDCHAR
STARTCHAR 006A
ENCODING 106
SWIDTH 960 0
DWIDTH 28 0
BBX 28 28 0 -5
BITMAP
0FFFFFE0
1FFFFFF0
1FFFFFF0
1FFFFFF0
1FFFFFF0
07FFFFF0
00FFFFF0
001FFFF0
0007FFF0
0007FFF0
000FFFF0
001FFFF0
003FFFF0
007FFFF0
00FFFFF0
01FFCFF0
03FF8FF0
07FF0FF0
0FFE07F0
1FFC07F0
3FF807F0
7FF003F0
FFE003F0
FFC001E0
7F8000C0
3F000000
1E000000
0C000000
ENDCHAR
STARTCHAR 006B
ENCODING 107
SWIDTH 960 0
DWIDTH 28 0
BBX 28 24 0 -3
BITMAP
00008000
0000C000
0000E000
0000F000
0000F800
0000FC00
00FFFE00
03FFFF00
0FFFFF80
1FFFFFC0
3FFFFFE0
3FFFFFF0
7FFFFFE0
7F83FFC0
7E03FF00
F803FC00
F003F000
E007E000
E0078000
C0060000
C0040000
80000000
80000000
80000000
ENDCHAR
STARTCHAR 006C
ENCODING 108
SWIDTH 1062 0
DWIDTH 31 0
BBX 31 27 0 -4
BITMAP
00040000
00040000
000C0000
001C0000
003C0000
007C0000
00FC0000
01FFF800
03FFFF00
07FFFFC0
0FFFFFE0
1FFFFFF0
3FFFFFF8
7FFFFFF8
FFFFFFFC
1FFF07FC
0FFF01FC
03FF007E
00FF003E
007F001E
001F000E
0007800E
00018006
00008006
00000002
00000002
00000002
ENDCHAR
STARTCHAR 006D
ENCODING 109
SWIDTH 960 0
DWIDTH 28 0
BBX 25 30 2 -6
BITMAP
01FF8000
01FF8000
01FF8000
01FF8000
01FF8000
01FF8000
01FF8000
01FF8000
01FF8000
01FF8000
01FF8000
01FF8000
01FF8000
01FF8000
01FF8000
01FF8000
FFFFFF80
7FFFFE00
3FFFFE00
1FFFFC00
0FFFF800
07FFF000
07FFE000
03FFC000
01FF8000
00FF0000
007E0000
003C0000
00180000
00080000
ENDCHAR
STARTCHAR 006E
ENCODING 110
SWIDTH 960 0
DWIDTH 28 0
BBX 28 23 0 -2
BITMAP
00080000
00180000
00380000
00780000
00F80000
01F80000
03F80000
07FFFFF0
0FFFFFF0
1FFFFFF0
3FFFFFF0
FFFFFFF0
7FFFFFF0
3FFFFFF0
1FFFFFF0
0FFFFFF0
07F80000
03F80000
01F80000
00780000
00380000
00180000
00080000
ENDCHAR
STARTCHAR 006F
ENCODING 111
SWIDTH 960 0
DWIDTH 28 0
BBX 28 23 0 -2
BITMAP
00010000
00008000
0000C000
0000E000
0000F000
0000F800
0000FC00
FFFFFE00
FFFFFF80
FFFFFFC0
FFFFFFE0
FFFFFFF0
FFFFFFE0
FFFFFFC0
FFFFFF80
FFFFFF00
0000FE00
0000FC00
0000F800
0000F000
0000E000
0000C000
00010000
ENDCHAR
STARTCHAR 0070
ENCODING 112
SWIDTH 960 0
DWIDTH 28 0
BBX 25 30 2 -6
BITMAP
00080000
001C0000
003E0000
007E0000
00FF0000
01FF8000
03FFC000
07FFE000
0FFFF000
1FFFF800
3FFFFC00
3FFFFE00
FFFFFF00
01FF8080
01FF8000
01FF8000
01FF8000
01FF8000
01FF8000
01FF8000
01FF8000
01FF8000
01FF8000
01FF8000
01FF8000
01FF8000
01FF8000
01FF8000
01FF8000
01FF8000
ENDCHAR
STARTCHAR 0071
ENCODING 113
SWIDTH 960 0
DWIDTH 28 0
BBX 25 30 2 -6
BITMAP
00008000
0000C000
0001C000
0001E000
0003F000
0003F000
0007F800
0007F800
F00FFC00
F01FFC00
F01FFE00
F03FFF00
F03FFF00
F07FFF80
F003E000
F003E000
F003E000
F003E000
F003E000
F003E000
F003E000
F803E000
F803E000
FC07C000
7E1FC000
7FFF8000
3FFF8000
1FFF0000
07FC0000
00E00000
ENDCHAR
STARTCHAR 0072
ENCODING 114
SWIDTH 960 0
DWIDTH 28 0
BBX 28 24 0 -3
BITMAP
00080000
00380000
00780000
01F80000
07F80000
1FFFF800
3FFFFE00
FFFFFF80
3FFFFFC0
0FFFFFE0
03F803E0
01F801F0
007801F0
001800F0
000800F0
000000F0
000001F0
000001F0
000007E0
00FFFFE0
00FFFFC0
00FFFF80
00FFFE00
00FFF000
ENDCHAR
STARTCHAR 0073
ENCODING 115
SWIDTH 960 0
DWIDTH 28 0
BBX 28 22 0 -2
BITMAP
003FE000
01FFFC00
07FFFF00
1FFFFF80
3FFFFFC0
7FFFFFE0
7FFFFFE0
FFFFFFF0
FFFFFFF0
FFFFFFF0
FFFFFFF0
7FFFFFF0
7FFFFFE0
3FFFFFE0
3FFFFFC0
0FFFFF00
07FFFE00
01FFF800
003F0000
00380000
00700000
01800000
ENDCHAR
STARTCHAR 0074
ENCODING 116
SWIDTH 960 0
DWIDTH 28 0
BBX 28 24 0 -3
BITMAP
7FFFFFE0
FFFFFFF0
FFFFFFF0
FFFFFFF0
FFFFFFF0
FFFFFFF0
FFFFFFF0
FFFFFFF0
FFFFFFF0
FFFFFFF0
FFFFFFF0
FFFFFFF0
FFFFFFF0
FFFFFFF0
FFFFFFF0
FFFFFFF0
FFFFFFF0
7FFFFFF0
000F0000
001C0000
00180000
00100000
00200000
00400000
ENDCHAR
STARTCHAR 0075
ENCODING 117
SWIDTH 960 0
DWIDTH 28 0
BBX 28 22 0 -2
BITMAP
007FE000
03FFFC00
0FFFFF00
1FFFFF80
3FFFFFC0
7FFFFFE0
7FFFFFE0
FFFFFFF0
FFFFFFF0
FFFFFFF0
FFFFFFF0
FFFFFFF0
7FFFFFE0
3FFFFFE0
1FFFFFC0
0FFFFF80
07FFFE00
00FFF800
0007C000
0001C000
0000E000
00001800
ENDCHAR
STARTCHAR 0076
ENCODING 118
SWIDTH 960 0
DWIDTH 28 0
BBX 28 24 0 -3
BITMAP
7FFFFFE0
FFFFFFF0
FFFFFFF0
FFFFFFF0
FFFFFFF0
FFFFFFF0
FFFFFFF0
FFFFFFF0
FFFFFFF0
FFFFFFF0
FFFFFFF0
FFFFFFF0
FFFFFFF0
FFFFFFF0
FFFFFFF0
FFFFFFF0
FFFFFFF0
7FFFFFF0
00070000
00038000
00018000
0000C000
00004000
00002000
ENDCHAR
STARTCHAR 0077
ENCODING 119
SWIDTH 960 0
DWIDTH 28 0
BBX 28 28 0 -5
BITMAP
000F0000
000F8000
001F8000
061F8600
0FFFCF00
1FFFFF80
0FFFFF80
0FFFFF00
07FFFE00
0FF9FE00
0FE07E00
7FC03FE0
7FC03FF0
FFC01FF0
FFC01FF0
7FC03FE0
1FE03FC0
07F07E00
07FFFE00
07FFFF00
0FFFFF00
1FFFFF80
0FBF9F80
0F1F8F00
001F8000
001F8000
000F0000
00060000
ENDCHAR
STARTCHAR 0078
ENCODING 120
SWIDTH 960 0
DWIDTH 28 0
BBX 28 23 0 -3
BITMAP
13000000
3B000000
1FE00000
5FE00000
F1C00000
70C1C200
31E1E700
7FE1FF00
7F9BFF00
0FBFFF00
1DBFFFE0
001F8FF0
001F07F0
001F03E0
003F0380
007F0780
007F8FE0
003FFFE0
0007FFE0
0007FCC0
0007FC00
00079E00
00021C00
ENDCHAR
STARTCHAR 0079
ENCODING 121
SWIDTH 960 0
DWIDTH 28 0
BBX 28 25 0 -3
BITMAP
00380000
00FE0700
03FF9FE0
07F05F00
07E01E00
0FE03FF0
1FF03FE0
7FF83FC0
FC7C7F00
783EFF00
380FF900
1007F000
0007C000
000FE000
003FF000
007EF800
00FC7E00
01F83F00
07F01F80
0FE00FC0
1FC007E0
3F8003F0
3F0003F0
3E0001C0
08000080
ENDCHAR
STARTCHAR 007A
ENCODING 122
SWIDTH 960 0
DWIDTH 28 0
BBX 28 28 0 -5
BITMAP
00008000
00008000
00018000
00038000
00070000
00070000
00070000
000F0000
000E0000
000E0000
000E0010
001E00E0
1F1E1FC0
3FDFFF80
7FFFFF00
F1FFF800
E1FF0000
FFF80000
7FBE0000
3F7E0000
00FF0000
00E70000
00E70000
00E70000
00EE0000
00FE0000
007C0000
00300000
ENDCHAR
STARTCHAR 007B
ENCODING 123
SWIDTH 960 0
DWIDTH 28 0
BBX 28 26 0 -4
BITMAP
00001F00
00001E00
00000F00
00000B80
000001C0
000000C0
000000E0
00000060
00000070
00000070
00000030
00000030
E0000030
E0000070
E0000070
60000070
70000060
700000E0
380000C0
380001C0
1C000380
0F000F00
07C01E00
03FFFC00
00FFF000
001FC000
ENDCHAR
STARTCHAR 007C
ENCODING 124
SWIDTH 960 0
DWIDTH 28 0
BBX 28 26 0 -4
BITMAP
0FC00000
07800000
0F800000
1E800000
3C800000
38000000
70000000
70000000
60000000
E0000000
E0000000
E0000000
E0000030
E0000030
E0000070
60000070
70000060
700000E0
380000C0
380001C0
1C000380
0F000700
07C01E00
03FFFC00
00FFF000
003FC000
ENDCHAR
STARTCHAR 007D
ENCODING 125
SWIDTH 480 0
DWIDTH 14 0
BBX 0 0 0 0
BITMAP
ENDCHAR
STARTCHAR 007E
ENCODING 126
SWIDTH 480 0
DWIDTH 14 0
BBX 0 0 0 0
BITMAP
ENDCHAR
STARTCHAR 00A0
ENCODING 160
SWIDTH 240 0
DWIDTH 7 0
BBX 0 0 0 0
BITMAP
ENDCHAR
STARTCHAR 00A1
ENCODING 161
SWIDTH 342 0
DWIDTH 10 0
BBX 0 0 0 0
BITMAP
ENDCHAR
STARTCHAR 00A2
ENCODING 162
SWIDTH 548 0
DWIDTH 16 0
BBX 0 0 0 0
BITMAP
ENDCHAR
STARTCHAR 00A3
ENCODING 163
SWIDTH 480 0
DWIDTH 14 0
BBX 0 0 0 0
BITMAP
ENDCHAR
STARTCHAR 00A4
ENCODING 164
SWIDTH 480 0
DWIDTH 14 0
BBX 0 0 0 0
BITMAP
ENDCHAR
STARTCHAR 00A5
ENCODING 165
SWIDTH 617 0
DWIDTH 18 0
BBX 0 0 0 0
BITMAP
ENDCHAR
STARTCHAR 00A6
ENCODING 166
SWIDTH 480 0
DWIDTH 14 0
BBX 0 0 0 0
BITMAP
ENDCHAR
STARTCHAR 00A7
ENCODING 167
SWIDTH 480 0
DWIDTH 14 0
BBX 0 0 0 0
BITMAP
ENDCHAR
STARTCHAR 00A8
ENCODING 168
SWIDTH 514 0
DWIDTH 15 0
BBX 0 0 0 0
BITMAP
ENDCHAR
STARTCHAR 00A9
ENCODING 169
SWIDTH 822 0
DWIDTH 24 0
BBX 0 0 0 0
BITMAP
ENDCHAR
STARTCHAR 00AA
ENCODING 170
SWIDTH 308 0
DWIDTH 9 0
BBX 0 0 0 0
BITMAP
ENDCHAR
STARTCHAR 00AB
ENCODING 171
SWIDTH 445 0
DWIDTH 13 0
BBX 0 0 0 0
BITMAP
ENDCHAR
STARTCHAR 00AC
ENCODING 172
SWIDTH 480 0
DWIDTH 14 0
BBX 0 0 0 0
BITMAP
ENDCHAR
STARTCHAR 00AD
ENCODING 173
SWIDTH 960 0
DWIDTH 28 0
BBX 28 28 0 -5
BITMAP
003FC000
01FFF800
03C01C00
07000700
0C000380
1E002180
330060C0
3180E060
60C0E060
6061E020
407FE030
C07FE030
C07FE030
C07FE030
C07FE030
C07FE030
C07FE030
6003E030
6001E060
6000E860
30006CC0
180027C0
1C000380
0E000700
07000E00
01E07C00
00FFF000
000F0000
ENDCHAR
STARTCHAR 00AE
ENCODING 174
SWIDTH 822 0
DWIDTH 24 0
BBX 0 0 0 0
BITMAP
ENDCHAR
STARTCHAR 00AF
ENCODING 175
SWIDTH 308 0
DWIDTH 9 0
BBX 0 0 0 0
BITMAP
ENDCHAR
STARTCHAR 00B0
ENCODING 176
SWIDTH 342 0
DWIDTH 10 0
BBX 0 0 0 0
BITMAP
ENDCHAR
STARTCHAR 00B1
ENCODING 177
SWIDTH 480 0
DWIDTH 14 0
BBX 0 0 0 0
BITMAP
ENDCHAR
STARTCHAR 00B2
ENCODING 178
SWIDTH 480 0
DWIDTH 14 0
BBX 0 0 0 0
BITMAP
ENDCHAR
STARTCHAR 00B3
ENCODING 179
SWIDTH 480 0
DWIDTH 14 0
BBX 0 0 0 0
BITMAP
ENDCHAR
STARTCHAR 00B4
ENCODING 180
SWIDTH 514 0
DWIDTH 15 0
BBX 0 0 0 0
BITMAP
ENDCHAR
STARTCHAR 00B5
ENCODING 181
SWIDTH 582 0
DWIDTH 17 0
BBX 0 0 0 0
BITMAP
ENDCHAR
STARTCHAR 00B6
ENCODING 182
SWIDTH 514 0
DWIDTH 15 0
BBX 0 0 0 0
BITMAP
ENDCHAR
STARTCHAR 00B7
ENCODING 183
SWIDTH 240 0
DWIDTH 7 0
BBX 0 0 0 0
BITMAP
ENDCHAR
STARTCHAR 00B8
ENCODING 184
SWIDTH 514 0
DWIDTH 15 0
BBX 0 0 0 0
BITMAP
ENDCHAR
STARTCHAR 00B9
ENCODING 185
SWIDTH 480 0
DWIDTH 14 0
BBX 0 0 0 0
BITMAP
ENDCHAR
STARTCHAR 00BA
ENCODING 186
SWIDTH 342 0
DWIDTH 10 0
BBX 0 0 0 0
BITMAP
ENDCHAR
STARTCHAR 00BB
ENCODING 187
SWIDTH 445 0
DWIDTH 13 0
BBX 0 0 0 0
BITMAP
ENDCHAR
STARTCHAR 00BC
ENCODING 188
SWIDTH 822 0
DWIDTH 24 0
BBX 0 0 0 0
BITMAP
ENDCHAR
STARTCHAR 00BD
ENCODING 189
SWIDTH 960 0
DWIDTH 28 0
BBX 0 0 0 0
BITMAP
ENDCHAR
STARTCHAR 00BE
ENCODING 190
SWIDTH 822 0
DWIDTH 24 0
BBX 0 0 0 0
BITMAP
ENDCHAR
STARTCHAR 00BF
ENCODING 191
SWIDTH 377 0
DWIDTH 11 0
BBX 0 0 0 0
BITMAP
ENDCHAR
STARTCHAR 00C0
ENCODING 192
SWIDTH 754 0
DWIDTH 22 0
BBX 0 0 0 0
BITMAP
ENDCHAR
STARTCHAR 00C1
ENCODING 193
SWIDTH 754 0
DWIDTH 22 0
BBX 0 0 0 0
BITMAP
ENDCHAR
STARTCHAR 00C2
ENCODING 194
SWIDTH 754 0
DWIDTH 22 0
BBX 0 0 0 0
BITMAP
ENDCHAR
STARTCHAR 00C3
ENCODING 195
SWIDTH 754 0
DWIDTH 22 0
BBX 0 0 0 0
BITMAP
ENDCHAR
STARTCHAR 00C4
ENCODING 196
SWIDTH 754 0
DWIDTH 22 0
BBX 0 0 0 0
BITMAP
ENDCHAR
STARTCHAR 00C5
ENCODING 197
SWIDTH 754 0
DWIDTH 22 0
BBX 0 0 0 0
BITMAP
ENDCHAR
STARTCHAR 00C6
ENCODING 198
SWIDTH 1028 0
DWIDTH 30 0
BBX 0 0 0 0
BITMAP
ENDCHAR
STARTCHAR 00C7
ENCODING 199
SWIDTH 685 0
DWIDTH 20 0
BBX 0 0 0 0
BITMAP
ENDCHAR
STARTCHAR 00C8
ENCODING 200
SWIDTH 548 0
DWIDTH 16 0
BBX 0 0 0 0
BITMAP
ENDCHAR
STARTCHAR 00C9
ENCODING 201
SWIDTH 548 0
DWIDTH 16 0
BBX 0 0 0 0
BITMAP
ENDCHAR
STARTCHAR 00CA
ENCODING 202
SWIDTH 548 0
DWIDTH 16 0
BBX 0 0 0 0
BITMAP
ENDCHAR
STARTCHAR 00CB
ENCODING 203
SWIDTH 548 0
DWIDTH 16 0
BBX 0 0 0 0
BITMAP
ENDCHAR
STARTCHAR 00CC
ENCODING 204
SWIDTH 308 0
DWIDTH 9 0
BBX 0 0 0 0
BITMAP
ENDCHAR
STARTCHAR 00CD
ENCODING 205
SWIDTH 308 0
DWIDTH 9 0
BBX 0 0 0 0
BITMAP
ENDCHAR
STARTCHAR 00CE
ENCODING 206
SWIDTH 308 0
DWIDTH 9 0
BBX 0 0 0 0
BITMAP
ENDCHAR
STARTCHAR 00CF
ENCODING 207
SWIDTH 308 0
DWIDTH 9 0
BBX 0 0 0 0
BITMAP
ENDCHAR
STARTCHAR 00D0
ENCODING 208
SWIDTH 754 0
DWIDTH 22 0
BBX 0 0 0 0
BITMAP
ENDCHAR
STARTCHAR 00D1
ENCODING 209
SWIDTH 754 0
DWIDTH 22 0
BBX 0 0 0 0
BITMAP
ENDCHAR
STARTCHAR 00D2
ENCODING 210
SWIDTH 788 0
DWIDTH 23 0
BBX 0 0 0 0
BITMAP
ENDCHAR
STARTCHAR 00D3
ENCODING 211
SWIDTH 788 0
DWIDTH 23 0
BBX 0 0 0 0
BITMAP
ENDCHAR
STARTCHAR 00D4
ENCODING 212
SWIDTH 788 0
DWIDTH 23 0
BBX 0 0 0 0
BITMAP
ENDCHAR
STARTCHAR 00D5
ENCODING 213
SWIDTH 788 0
DWIDTH 23 0
BBX 0 0 0 0
BITMAP
ENDCHAR
STARTCHAR 00D6
ENCODING 214
SWIDTH 788 0
DWIDTH 23 0
BBX 0 0 0 0
BITMAP
ENDCHAR
STARTCHAR 00D7
ENCODING 215
SWIDTH 480 0
DWIDTH 14 0
BBX 0 0 0 0
BITMAP
ENDCHAR
STARTCHAR 00D8
ENCODING 216
SWIDTH 788 0
DWIDTH 23 0
BBX 0 0 0 0
BITMAP
ENDCHAR
STARTCHAR 00D9
ENCODING 217
SWIDTH 720 0
DWIDTH 21 0
BBX 0 0 0 0
BITMAP
ENDCHAR
STARTCHAR 00DA
ENCODING 218
SWIDTH 720 0
DWIDTH 21 0
BBX 0 0 0 0
BITMAP
ENDCHAR
STARTCHAR 00DB
ENCODING 219
SWIDTH 720 0
DWIDTH 21 0
BBX 0 0 0 0
BITMAP
ENDCHAR
STARTCHAR 00DC
ENCODING 220
SWIDTH 720 0
DWIDTH 21 0
BBX 0 0 0 0
BITMAP
ENDCHAR
STARTCHAR 00DD
ENCODING 221
SWIDTH 582 0
DWIDTH 17 0
BBX 0 0 0 0
BITMAP
ENDCHAR
STARTCHAR 00DE
ENCODING 222
SWIDTH 548 0
DWIDTH 16 0
BBX 0 0 0 0
BITMAP
ENDCHAR
STARTCHAR 00DF
ENCODING 223
SWIDTH 617 0
DWIDTH 18 0
BBX 0 0 0 0
BITMAP
ENDCHAR
STARTCHAR 00E0
ENCODING 224
SWIDTH 445 0
DWIDTH 13 0
BBX 0 0 0 0
BITMAP
ENDCHAR
STARTCHAR 00E1
ENCODING 225
SWIDTH 445 0
DWIDTH 13 0
BBX 0 0 0 0
BITMAP
ENDCHAR
STARTCHAR 00E2
ENCODING 226
SWIDTH 445 0
DWIDTH 13 0
BBX 0 0 0 0
BITMAP
ENDCHAR
STARTCHAR 00E3
ENCODING 227
SWIDTH 445 0
DWIDTH 13 0
BBX 0 0 0 0
BITMAP
ENDCHAR
STARTCHAR 00E4
ENCODING 228
SWIDTH 445 0
DWIDTH 13 0
BBX 0 0 0 0
BITMAP
ENDCHAR
STARTCHAR 00E5
ENCODING 229
SWIDTH 445 0
DWIDTH 13 0
BBX 0 0 0 0
BITMAP
ENDCHAR
STARTCHAR 00E6
ENCODING 230
SWIDTH 720 0
DWIDTH 21 0
BBX 0 0 0 0
BITMAP
ENDCHAR
STARTCHAR 00E7
ENCODING 231
SWIDTH 445 0
DWIDTH 13 0
BBX 0 0 0 0
BITMAP
ENDCHAR
STARTCHAR 00E8
ENCODING 232
SWIDTH 445 0
DWIDTH 13 0
BBX 0 0 0 0
BITMAP
ENDCHAR
STARTCHAR 00E9
ENCODING 233
SWIDTH 445 0
DWIDTH 13 0
BBX 0 0 0 0
BITMAP
ENDCHAR
STARTCHAR 00EA
ENCODING 234
SWIDTH 445 0
DWIDTH 13 0
BBX 0 0 0 0
BITMAP
ENDCHAR
STARTCHAR 00EB
ENCODING 235
SWIDTH 445 0
DWIDTH 13 0
BBX 0 0 0 0
BITMAP
ENDCHAR
STARTCHAR 00EC
ENCODING 236
SWIDTH 240 0
DWIDTH 7 0
BBX 0 0 0 0
BITMAP
ENDCHAR
STARTCHAR 00ED
ENCODING 237
SWIDTH 240 0
DWIDTH 7 0
BBX 0 0 0 0
BITMAP
ENDCHAR
STARTCHAR 00EE
ENCODING 238
SWIDTH 240 0
DWIDTH 7 0
BBX 0 0 0 0
BITMAP
ENDCHAR
STARTCHAR 00EF
ENCODING 239
SWIDTH 240 0
DWIDTH 7 0
BBX 0 0 0 0
BITMAP
ENDCHAR
STARTCHAR 00F0
ENCODING 240
SWIDTH 548 0
DWIDTH 16 0
BBX 0 0 0 0
BITMAP
ENDCHAR
STARTCHAR 00F1
ENCODING 241
SWIDTH 548 0
DWIDTH 16 0
BBX 0 0 0 0
BITMAP
ENDCHAR
STARTCHAR 00F2
ENCODING 242
SWIDTH 480 0
DWIDTH 14 0
BBX 0 0 0 0
BITMAP
ENDCHAR
STARTCHAR 00F3
ENCODING 243
SWIDTH 480 0
DWIDTH 14 0
BBX 0 0 0 0
BITMAP
ENDCHAR
STARTCHAR 00F4
ENCODING 244
SWIDTH 480 0
DWIDTH 14 0
BBX 0 0 0 0
BITMAP
ENDCHAR
STARTCHAR 00F5
ENCODING 245
SWIDTH 480 0
DWIDTH 14 0
BBX 0 0 0 0
BITMAP
ENDCHAR
STARTCHAR 00F6
ENCODING 246
SWIDTH 480 0
DWIDTH 14 0
BBX 0 0 0 0
BITMAP
ENDCHAR
STARTCHAR 00F7
ENCODING 247
SWIDTH 480 0
DWIDTH 14 0
BBX 0 0 0 0
BITMAP
ENDCHAR
STARTCHAR 00F8
ENCODING 248
SWIDTH 480 0
DWIDTH 14 0
BBX 0 0 0 0
BITMAP
ENDCHAR
STARTCHAR 00F9
ENCODING 249
SWIDTH 514 0
DWIDTH 15 0
BBX 0 0 0 0
BITMAP
ENDCHAR
STARTCHAR 00FA
ENCODING 250
SWIDTH 514 0
DWIDTH 15 0
BBX 0 0 0 0
BITMAP
ENDCHAR
STARTCHAR 00FB
ENCODING 251
SWIDTH 514 0
DWIDTH 15 0
BBX 0 0 0 0
BITMAP
ENDCHAR
STARTCHAR 00FC
ENCODING 252
SWIDTH 514 0
DWIDTH 15 0
BBX 0 0 0 0
BITMAP
ENDCHAR
STARTCHAR 00FD
ENCODING 253
SWIDTH 411 0
DWIDTH 12 0
BBX 0 0 0 0
BITMAP
ENDCHAR
STARTCHAR 00FE
ENCODING 254
SWIDTH 480 0
DWIDTH 14 0
BBX 0 0 0 0
BITMAP
ENDCHAR
STARTCHAR 00FF
ENCODING 255
SWIDTH 411 0
DWIDTH 12 0
BBX 0 0 0 0
BITMAP
ENDCHAR
STARTCHAR 0131
ENCODING 305
SWIDTH 240 0
DWIDTH 7 0
BBX 0 0 0 0
BITMAP
ENDCHAR
STARTCHAR 02C6
ENCODING 710
SWIDTH 514 0
DWIDTH 15 0
BBX 0 0 0 0
BITMAP
ENDCHAR
STARTCHAR 02C7
ENCODING 711
SWIDTH 514 0
DWIDTH 15 0
BBX 0 0 0 0
BITMAP
ENDCHAR
STARTCHAR 02C9
ENCODING 713
SWIDTH 514 0
DWIDTH 15 0
BBX 0 0 0 0
BITMAP
ENDCHAR
STARTCHAR 02D8
ENCODING 728
SWIDTH 514 0
DWIDTH 15 0
BBX 0 0 0 0
BITMAP
ENDCHAR
STARTCHAR 02D9
ENCODING 729
SWIDTH 514 0
DWIDTH 15 0
BBX 0 0 0 0
BITMAP
ENDCHAR
STARTCHAR 02DA
ENCODING 730
SWIDTH 514 0
DWIDTH 15 0
BBX 0 0 0 0
BITMAP
ENDCHAR
STARTCHAR 02DB
ENCODING 731
SWIDTH 514 0
DWIDTH 15 0
BBX 0 0 0 0
BITMAP
ENDCHAR
STARTCHAR 02DC
ENCODING 732
SWIDTH 514 0
DWIDTH 15 0
BBX 0 0 0 0
BITMAP
ENDCHAR
STARTCHAR 02DD
ENCODING 733
SWIDTH 514 0
DWIDTH 15 0
BBX 0 0 0 0
BITMAP
ENDCHAR
STARTCHAR 037E
ENCODING 894
SWIDTH 960 0
DWIDTH 28 0
BBX 28 28 0 -5
BITMAP
00060000
00060000
00060000
00060000
00060000
00060000
00060000
00060000
00060000
00060000
00060000
00060000
00060000
FFFFFFF0
FFFFFFF0
00060000
00060000
00060000
00060000
00060000
00060000
00060000
00060000
00060000
00060000
00060000
00060000
00060000
ENDCHAR
STARTCHAR 2013
ENCODING 8211
SWIDTH 548 0
DWIDTH 16 0
BBX 0 0 0 0
BITMAP
ENDCHAR
STARTCHAR 2014
ENCODING 8212
SWIDTH 994 0
DWIDTH 29 0
BBX 0 0 0 0
BITMAP
ENDCHAR
STARTCHAR 2018
ENCODING 8216
SWIDTH 274 0
DWIDTH 8 0
BBX 0 0 0 0
BITMAP
ENDCHAR
STARTCHAR 2019
ENCODING 8217
SWIDTH 274 0
DWIDTH 8 0
BBX 0 0 0 0
BITMAP
ENDCHAR
STARTCHAR 201A
ENCODING 8218
SWIDTH 274 0
DWIDTH 8 0
BBX 0 0 0 0
BITMAP
ENDCHAR
STARTCHAR 201C
ENCODING 8220
SWIDTH 445 0
DWIDTH 13 0
BBX 0 0 0 0
BITMAP
ENDCHAR
STARTCHAR 201D
ENCODING 8221
SWIDTH 445 0
DWIDTH 13 0
BBX 0 0 0 0
BITMAP
ENDCHAR
STARTCHAR 201E
ENCODING 8222
SWIDTH 445 0
DWIDTH 13 0
BBX 0 0 0 0
BITMAP
ENDCHAR
STARTCHAR 2020
ENCODING 8224
SWIDTH 480 0
DWIDTH 14 0
BBX 0 0 0 0
BITMAP
ENDCHAR
STARTCHAR 2021
ENCODING 8225
SWIDTH 480 0
DWIDTH 14 0
BBX 0 0 0 0
BITMAP
ENDCHAR
STARTCHAR 2022
ENCODING 8226
SWIDTH 514 0
DWIDTH 15 0
BBX 0 0 0 0
BITMAP
ENDCHAR
STARTCHAR 2026
ENCODING 8230
SWIDTH 994 0
DWIDTH 29 0
BBX 0 0 0 0
BITMAP
ENDCHAR
STARTCHAR 2039
ENCODING 8249
SWIDTH 308 0
DWIDTH 9 0
BBX 0 0 0 0
BITMAP
ENDCHAR
STARTCHAR 203A
ENCODING 8250
SWIDTH 308 0
DWIDTH 9 0
BBX 0 0 0 0
BITMAP
ENDCHAR
STARTCHAR 2044
ENCODING 8260
SWIDTH 171 0
DWIDTH 5 0
BBX 0 0 0 0
BITMAP
ENDCHAR
STARTCHAR 20A3
ENCODING 8355
SWIDTH 480 0
DWIDTH 14 0
BBX 0 0 0 0
BITMAP
ENDCHAR
STARTCHAR 20A4
ENCODING 8356
SWIDTH 480 0
DWIDTH 14 0
BBX 0 0 0 0
BITMAP
ENDCHAR
STARTCHAR 20A7
ENCODING 8359
SWIDTH 994 0
DWIDTH 29 0
BBX 0 0 0 0
BITMAP
ENDCHAR
STARTCHAR 20AC
ENCODING 8364
SWIDTH 480 0
DWIDTH 14 0
BBX 0 0 0 0
BITMAP
ENDCHAR
STARTCHAR 2116
ENCODING 8470
SWIDTH 1097 0
DWIDTH 32 0
BBX 0 0 0 0
BITMAP
ENDCHAR
STARTCHAR 2122
ENCODING 8482
SWIDTH 720 0
DWIDTH 21 0
BBX 0 0 0 0
BITMAP
ENDCHAR
STARTCHAR 2202
ENCODING 8706
SWIDTH 480 0
DWIDTH 14 0
BBX 0 0 0 0
BITMAP
ENDCHAR
STARTCHAR 2206
ENCODING 8710
SWIDTH 514 0
DWIDTH 15 0
BBX 0 0 0 0
BITMAP
ENDCHAR
STARTCHAR 220F
ENCODING 8719
SWIDTH 720 0
DWIDTH 21 0
BBX 0 0 0 0
BITMAP
ENDCHAR
STARTCHAR 2211
ENCODING 8721
SWIDTH 582 0
DWIDTH 17 0
BBX 0 0 0 0
BITMAP
ENDCHAR
STARTCHAR 2212
ENCODING 8722
SWIDTH 480 0
DWIDTH 14 0
BBX 0 0 0 0
BITMAP
ENDCHAR
STARTCHAR 2215
ENCODING 8725
SWIDTH 171 0
DWIDTH 5 0
BBX 0 0 0 0
BITMAP
ENDCHAR
STARTCHAR 2219
ENCODING 8729
SWIDTH 240 0
DWIDTH 7 0
BBX 0 0 0 0
BITMAP
ENDCHAR
STARTCHAR 221A
ENCODING 8730
SWIDTH 480 0
DWIDTH 14 0
BBX 0 0 0 0
BITMAP
ENDCHAR
STARTCHAR 221E
ENCODING 8734
SWIDTH 480 0
DWIDTH 14 0
BBX 0 0 0 0
BITMAP
ENDCHAR
STARTCHAR 222B
ENCODING 8747
SWIDTH 308 0
DWIDTH 9 0
BBX 0 0 0 0
BITMAP
ENDCHAR
STARTCHAR 2248
ENCODING 8776
SWIDTH 480 0
DWIDTH 14 0
BBX 0 0 0 0
BITMAP
ENDCHAR
STARTCHAR 2264
ENCODING 8804
SWIDTH 480 0
DWIDTH 14 0
BBX 0 0 0 0
BITMAP
ENDCHAR
STARTCHAR 2265
ENCODING 8805
SWIDTH 480 0
DWIDTH 14 0
BBX 0 0 0 0
BITMAP
ENDCHAR
STARTCHAR F001
ENCODING 61441
SWIDTH 514 0
DWIDTH 15 0
BBX 0 0 0 0
BITMAP
ENDCHAR
STARTCHAR F002
ENCODING 61442
SWIDTH 514 0
DWIDTH 15 0
BBX 0 0 0 0
BITMAP
ENDCHAR
STARTCHAR FB01
ENCODING 64257
SWIDTH 514 0
DWIDTH 15 0
BBX 0 0 0 0
BITMAP
ENDCHAR
STARTCHAR FB02
ENCODING 64258
SWIDTH 514 0
DWIDTH 15 0
BBX 0 0 0 0
BITMAP
ENDCHAR
ENDFONT
